<?xml version="1.0" encoding="utf-8"?>
<!-- Generator: Adobe Illustrator 15.1.0, SVG Export Plug-In . SVG Version: 6.00 Build 0)  -->
<!DOCTYPE svg PUBLIC "-//W3C//DTD SVG 1.1//EN" "http://www.w3.org/Graphics/SVG/1.1/DTD/svg11.dtd">
<svg version="1.1" id="Layer_1" xmlns="http://www.w3.org/2000/svg" xmlns:xlink="http://www.w3.org/1999/xlink" x="0px" y="0px"
	 width="612px" height="489.599px" viewBox="0 151.201 612 489.599" enable-background="new 0 151.201 612 489.599"
	 xml:space="preserve">
<path d="M596.7,579.6h-76.5V259.687c0-26.067-20.588-47.287-45.9-47.287H367.2v61.2H459v367.2h137.7c8.453,0,15.3-6.847,15.3-15.3
	v-30.6C612,586.447,605.153,579.6,596.7,579.6z M298.58,152.166l-183.6,47.563c-13.626,3.529-23.18,16.208-23.18,30.763V579.6H15.3
	C6.847,579.6,0,586.447,0,594.9v30.6c0,8.453,6.847,15.3,15.3,15.3h321.3V182.928C336.6,162.292,317.896,147.155,298.58,152.166z
	 M252.45,426.6c-12.67,0-22.95-13.703-22.95-30.6c0-16.897,10.28-30.6,22.95-30.6c12.67,0,22.95,13.703,22.95,30.6
	C275.4,412.896,265.12,426.6,252.45,426.6z"/>
<path display="none" fill="#FF0000" d="M596.7,579.6h-76.5V259.687c0-26.067-20.588-47.287-45.9-47.287h-43.8v61.2H459v367.2h137.7
	c8.453,0,15.3-6.847,15.3-15.3v-30.6C612,586.447,605.153,579.6,596.7,579.6z M361.879,180.404l-246.899,19.325
	c-13.626,3.529-23.18,16.208-23.18,30.763V579.6H15.3C6.847,579.6,0,586.447,0,594.9v30.6c0,8.453,6.847,15.3,15.3,15.3h384.6
	V211.167C399.899,190.531,383.167,178.5,361.879,180.404z M338.742,419.268c-12.088,0-21.896-10.42-21.896-23.267
	c0-12.848,9.809-23.267,21.896-23.267s21.897,10.419,21.897,23.267C360.64,408.848,350.83,419.268,338.742,419.268z"/>
<path fill="#00FF00" d="M596.699,579.6h-76.5V259.687c0-26.067-20.588-47.287-45.9-47.287H397.5v61.2H459v367.2h137.699
	c8.453,0,15.301-6.847,15.301-15.3v-30.6C612,586.447,605.152,579.6,596.699,579.6z M328.88,175.738l-213.901,23.992
	c-13.626,3.529-23.18,16.208-23.18,30.763V579.6h-76.5C6.846,579.6,0,586.447,0,594.9v30.6c0,8.453,6.847,15.3,15.3,15.3H366.9
	V206.5C366.9,185.864,348.195,170.727,328.88,175.738z M282.75,426.6c-12.67,0-22.95-13.703-22.95-30.6
	c0-16.897,10.28-30.6,22.95-30.6c12.67,0,22.95,13.703,22.95,30.6C305.7,412.896,295.42,426.6,282.75,426.6z"/>
</svg>
