<?xml version="1.0" encoding="utf-8"?>
<!-- Generator: Adobe Illustrator 15.1.0, SVG Export Plug-In . SVG Version: 6.00 Build 0)  -->
<!DOCTYPE svg PUBLIC "-//W3C//DTD SVG 1.1//EN" "http://www.w3.org/Graphics/SVG/1.1/DTD/svg11.dtd">
<svg version="1.1" id="Layer_1" xmlns="http://www.w3.org/2000/svg" xmlns:xlink="http://www.w3.org/1999/xlink" x="0px" y="0px"
	 width="524.572px" height="700.045px" viewBox="0 0 524.572 700.045" enable-background="new 0 0 524.572 700.045"
	 xml:space="preserve">
<path fill="#564B9F" d="M459,219.172h-1.284c12.394-107.933-65.057-205.477-172.989-217.87
	C176.792-11.091,79.249,66.359,66.855,174.292c-1.712,14.911-1.712,29.969,0,44.88h-1.284C29.357,219.172,0,248.529,0,284.745
	c0,36.214,29.357,65.571,65.571,65.571h393.428c36.215,0,65.572-29.356,65.572-65.571C524.572,248.529,495.215,219.172,459,219.172z
	 M223.189,675.017c9.964,21.593,35.545,31.021,57.138,21.057c9.299-4.291,16.765-11.757,21.056-21.057l135.762-280.987H87.429
	L223.189,675.017z"/>
<path display="none" d="M454.286,228.815l-6.5-9.643c12.005-104.545-83.351-113.027-161.768-122.031
	C178.085,84.749,85.68,66.882,73.286,174.815c0.43,19.523,0.04,24.754-1.5,37.5l-5,12C32.777,236.294,0,284.744,0,320.959
	c0,36.214,29.357,29.356,65.571,29.356l337.881-0.293c47.333,2.793,45.291,31.96,49.333,58.793c2.679,17.784,18.324,87.98,31,96
	c12.25,7.75,22.334,5.472,30.432-17.333c6.225-17.529,10.354-115.843,10.354-126.167
	C524.572,325.102,477.119,247.148,454.286,228.815z M223.189,675.017c9.964,21.593,35.545,31.021,57.138,21.057
	c9.299-4.291,16.765-11.757,21.056-21.057l114.045-236.041l-3.642-22.16l-4.333-22.786H87.429L223.189,675.017z"/>
<path display="none" fill="#FF0000" d="M459,219.172h-1.284c12.394-107.933-65.057-152.963-172.989-165.357
	C176.793,41.422,79.249,66.359,66.856,174.292c-1.712,14.911-1.712,29.969,0,44.88h-1.284c-36.214,0-65.571,59.429-65.571,95.643
	s29.357,35.5,65.571,35.5H459c36.215,0,65.572,0.714,65.572-35.5S495.215,219.172,459,219.172z M223.188,675.017
	c9.966,21.593,35.547,31.021,57.14,21.057c9.299-4.291,16.765-11.757,21.056-21.057l135.762-280.987H87.429L223.188,675.017z"/>
<path display="none" fill="#00FF00" d="M459,219.172h-1.284c12.394-107.933-65.057-152.963-172.989-165.357
	C176.792,41.422,79.248,66.359,66.856,174.292c-1.713,14.911-1.713,29.969,0,44.88h-1.285C29.358,219.172,0,278.602,0,314.815
	s29.357,35.5,65.571,35.5l387.071,12.286c36.215,0,71.93-11.572,71.93-47.786S495.215,219.172,459,219.172z M223.188,675.017
	c9.966,21.593,35.547,31.021,57.14,21.057c9.299-4.291,16.765-11.757,21.056-21.057l129.403-268.701L87.429,394.029L223.188,675.017
	z"/>
</svg>
