<?xml version="1.0" encoding="utf-8"?>
<!-- Generator: Adobe Illustrator 15.1.0, SVG Export Plug-In . SVG Version: 6.00 Build 0)  -->
<!DOCTYPE svg PUBLIC "-//W3C//DTD SVG 1.1//EN" "http://www.w3.org/Graphics/SVG/1.1/DTD/svg11.dtd">
<svg version="1.1" id="Layer_1" xmlns="http://www.w3.org/2000/svg" xmlns:xlink="http://www.w3.org/1999/xlink" x="0px" y="0px"
	 width="524.572px" height="700.045px" viewBox="43.714 45.685 524.572 700.045"
	 enable-background="new 43.714 45.685 524.572 700.045" xml:space="preserve">
<path fill="#564B9F" d="M502.714,264.857h-1.284C513.823,156.924,436.373,59.38,328.44,46.987
	c-107.934-12.393-205.477,65.057-217.871,172.99c-1.712,14.911-1.712,29.969,0,44.88h-1.284c-36.214,0-65.571,29.357-65.571,65.572
	c0,36.214,29.357,65.571,65.571,65.571h393.428c36.215,0,65.572-29.357,65.572-65.571
	C568.286,294.214,538.929,264.857,502.714,264.857z M266.903,720.701c9.964,21.593,35.545,31.021,57.138,21.057
	c9.299-4.291,16.765-11.757,21.056-21.057l135.761-280.987H131.143L266.903,720.701z"/>
<path display="none" d="M498,274.5l-6.5-9.643c12.005-104.545-83.351-113.027-161.768-122.031
	C221.799,130.433,129.394,112.567,117,220.5c0.43,19.523,0.04,24.754-1.5,37.5l-5,12c-34.009,11.979-66.786,60.428-66.786,96.643
	c0,36.214,29.357,29.357,65.571,29.357l337.881-0.293c47.333,2.793,45.291,31.96,49.333,58.793c2.679,17.784,18.324,87.98,31,96
	c12.25,7.75,22.334,5.472,30.432-17.333c6.224-17.529,10.354-115.843,10.354-126.167C568.286,370.786,520.833,292.833,498,274.5z
	 M266.903,720.701c9.964,21.593,35.545,31.021,57.138,21.057c9.299-4.291,16.765-11.757,21.056-21.057L459.142,484.66L455.5,462.5
	l-4.333-22.786H131.143L266.903,720.701z"/>
<path fill="#FEDD60" d="M502.714,264.857h-1.284C513.823,156.924,436.373,111.894,328.44,99.5
	C220.507,87.107,122.963,112.044,110.57,219.977c-1.712,14.911-1.712,29.969,0,44.88h-1.284c-36.214,0-65.571,59.429-65.571,95.643
	c0,36.214,29.357,35.5,65.571,35.5h393.428c36.215,0,65.572,0.714,65.572-35.5C568.286,324.286,538.929,264.857,502.714,264.857z
	 M266.902,720.701c9.965,21.593,35.546,31.021,57.139,21.057c9.299-4.291,16.765-11.757,21.056-21.057l135.761-280.987H131.143
	L266.902,720.701z"/>
</svg>
