<?xml version="1.0" encoding="utf-8"?>
<!-- Generator: Adobe Illustrator 15.1.0, SVG Export Plug-In . SVG Version: 6.00 Build 0)  -->
<!DOCTYPE svg PUBLIC "-//W3C//DTD SVG 1.1//EN" "http://www.w3.org/Graphics/SVG/1.1/DTD/svg11.dtd">
<svg version="1.1" id="Layer_1" xmlns="http://www.w3.org/2000/svg" xmlns:xlink="http://www.w3.org/1999/xlink" x="0px" y="0px"
	 width="612px" height="488.977px" viewBox="0 151.2 612 488.977" enable-background="new 0 151.2 612 488.977"
	 xml:space="preserve">
<path display="none" d="M327.755,488.45c5.488-9.17,8.845-19.785,8.845-31.25c0-33.804-27.396-61.2-61.2-61.2
	c-16.457,0-31.336,6.579-42.333,17.146C217.442,384.812,187.645,365.4,153,365.4c-50.7,0-91.8,41.1-91.8,91.8
	c0,1.864,0.439,3.614,0.545,5.45C25.895,475.148,0,508.886,0,549c0,50.7,41.1,91.8,91.8,91.8h229.5c42.247,0,76.5-34.253,76.5-76.5
	C397.8,524.262,366.933,491.778,327.755,488.45z M542.706,474.733c-83.468,15.392-160.12-46.574-160.12-128.152
	c0-46.991,25.985-90.202,68.213-113.473c6.51-3.588,4.868-13.141-2.523-14.463c-10.37-1.841-20.893-2.778-31.431-2.778
	c-94.968,0-170.945,62.742-170.945,154.802c0,5.813-0.601-5.662,0,0c7.904-2.706,20.958-5.499,29.5-5.269
	c65.767,1.767,94.433,53.1,91.198,102.061c-0.189,2.869,0.337-2.851,0,0c29.235,14.039,57.902,49.373,60.473,80.19
	c6.375,0.697,18.194,1.339,24.762,1.339c53.061,0,66.546-23.366,98.649-61.668C555.23,481.66,550.05,473.38,542.706,474.733
	L542.706,474.733z"/>
<path fill="#231F20" d="M327.755,488.45c5.488-9.17,8.845-19.785,8.845-31.25c0-33.804-27.396-61.2-61.2-61.2
	c-16.457,0-31.336,6.579-42.333,17.146C217.442,384.812,187.645,365.4,153,365.4c-50.7,0-91.8,41.1-91.8,91.8
	c0,1.864,0.439,3.614,0.545,5.45C25.895,475.148,0,508.886,0,549c0,50.7,41.1,91.8,91.8,91.8h229.5c42.247,0,76.5-34.253,76.5-76.5
	C397.8,524.262,366.933,491.778,327.755,488.45z M600.534,460.317c-99.67,18.379-191.202-55.615-191.202-153.029
	c0-56.113,31.03-107.712,81.454-135.5c7.774-4.284,5.813-15.692-3.013-17.27c-12.383-2.199-24.948-3.318-37.532-3.318
	c-113.402,0-205.441,88.969-205.441,198.9c0,6.942,0.383,13.808,1.1,20.569c9.438-3.232,19.297-5.269,29.5-5.269
	c50.624,0,91.8,41.176,91.8,91.8c0,3.433-0.201,6.856-0.603,10.261c32.024,14.717,54.956,44.513,60.473,80.19
	c7.612,0.832,15.329,1.349,23.171,1.349c63.36,0,121.242-27.913,159.578-73.65C615.49,468.589,609.304,458.701,600.534,460.317
	L600.534,460.317z"/>
</svg>
